<?xml version="1.0" encoding="UTF-8"?>
<svg version="1.1" xmlns="http://www.w3.org/2000/svg" width="78" height="76" viewBox="0 0 78 76">
<path d="M0 0 C25.74 0 51.48 0 78 0 C78 25.08 78 50.16 78 76 C52.26 76 26.52 76 0 76 C0 50.92 0 25.84 0 0 Z " fill="#F45C2E" transform="translate(0,0)"/>
<g transform="translate(39, 38) scale(1.4) translate(-39, -38)">
  <path d="M0 0 C2.37681208 0.61676769 3.28022678 1.62343562 4.8515625 3.48046875 C6.84336659 4.49669533 8.84308885 5.49759867 10.8515625 6.48046875 C13.26643193 8.89533818 13.147755 9.60754664 13.1640625 12.91796875 C13.18082031 13.70042969 13.19757812 14.48289062 13.21484375 15.2890625 C12.8515625 17.48046875 12.8515625 17.48046875 11.36328125 18.91796875 C8.70450004 21.66606302 9.37428838 25.32994429 9.2578125 28.984375 C9.12375 29.80808594 8.9896875 30.63179687 8.8515625 31.48046875 C5.80182565 33.51362665 5.16199382 33.73531955 1.7265625 33.74609375 C0.93765625 33.74867187 0.14875 33.75125 -0.6640625 33.75390625 C-1.48390625 33.74617188 -2.30375 33.7384375 -3.1484375 33.73046875 C-4.37820312 33.74207031 -4.37820312 33.74207031 -5.6328125 33.75390625 C-6.42171875 33.75132813 -7.210625 33.74875 -8.0234375 33.74609375 C-8.74273437 33.74383789 -9.46203125 33.74158203 -10.203125 33.73925781 C-12.1484375 33.48046875 -12.1484375 33.48046875 -15.1484375 31.48046875 C-15.5546875 28.984375 -15.5546875 28.984375 -15.6484375 26.04296875 C-15.78472811 21.77820827 -16.10989058 20.37658378 -19.1484375 17.48046875 C-19.82588515 14.41501812 -19.74612095 11.55825921 -19.1484375 8.48046875 C-16.9609375 6.10546875 -16.9609375 6.10546875 -14.1484375 4.48046875 C-12.8490625 3.67609375 -12.8490625 3.67609375 -11.5234375 2.85546875 C-10.7396875 2.40171875 -9.9559375 1.94796875 -9.1484375 1.48046875 C-5.48788539 -0.95989932 -4.14612111 -0.64076417 0 0 Z " fill="#FDF0EC" transform="translate(43.1484375,22.51953125)"/>
  <path d="M0 0 C3.75951202 0.53707315 4.55833802 1.69099977 7.0625 4.4375 C9.66165538 5.62777984 9.66165538 5.62777984 12.0625 6.4375 C13.0625 7.4375 13.0625 7.4375 13.3125 9.8125 C13.01172566 12.97063054 12.26725971 13.32093068 10.0625 15.4375 C9.7325 17.0875 9.4025 18.7375 9.0625 20.4375 C3.1225 20.4375 -2.8175 20.4375 -8.9375 20.4375 C-9.5975 18.4575 -10.2575 16.4775 -10.9375 14.4375 C-11.5975 13.7775 -12.2575 13.1175 -12.9375 12.4375 C-13.1875 9.9375 -13.1875 9.9375 -12.9375 7.4375 C-10.9375 5.4375 -10.9375 5.4375 -8.5 4.5 C-5.90981427 3.64529512 -5.90981427 3.64529512 -4.5 1.8125 C-2.9375 0.4375 -2.9375 0.4375 0 0 Z " fill="#F46133" transform="translate(39.9375,25.5625)"/>
  <path d="M0 0 C5.28 0 10.56 0 16 0 C16 0.99 16 1.98 16 3 C10.72 3 5.44 3 0 3 C0 2.01 0 1.02 0 0 Z " fill="#F35730" transform="translate(32,49)"/>
</g>
</svg>
